<svg width="16" height="17" viewBox="0 0 16 17" fill="none" xmlns="http://www.w3.org/2000/svg">
<g id="lucide:copyright">
<g id="Group">
<path id="Vector" d="M7.99479 15.1668C11.6767 15.1668 14.6615 12.1821 14.6615 8.50016C14.6615 4.81826 11.6767 1.8335 7.99479 1.8335C4.31289 1.8335 1.32812 4.81826 1.32812 8.50016C1.32812 12.1821 4.31289 15.1668 7.99479 15.1668Z" stroke="#101010" stroke-linecap="round" stroke-linejoin="round"/>
<path id="Vector_2" d="M9.87936 10.3868C9.5063 10.7595 9.03114 11.0132 8.51394 11.1158C7.99674 11.2185 7.46071 11.1655 6.97362 10.9636C6.48652 10.7616 6.07022 10.4198 5.77733 9.98138C5.48445 9.54291 5.32812 9.02745 5.32812 8.50016C5.32812 7.97287 5.48445 7.45742 5.77733 7.01895C6.07022 6.58049 6.48652 6.23869 6.97362 6.03677C7.46071 5.83485 7.99674 5.78187 8.51394 5.88452C9.03114 5.98717 9.5063 6.24085 9.87936 6.6135" stroke="#101010" stroke-linecap="round" stroke-linejoin="round"/>
</g>
</g>
</svg>
